<svg xmlns="http://www.w3.org/2000/svg" aria-hidden="true">
  <defs>
    <symbol id="icon-x" viewBox="0 0 32 32">
      <path fill="none" stroke="#f9f9f9" stroke-linecap="round" stroke-linejoin="round" stroke-width="2.909" d="M24 8 8 24M8 8l16 16" style="stroke:var(--color1, #f9f9f9)"/>
    </symbol>
   
    <symbol id="icon-eye-off" viewBox="0 0 32 32">
      <path fill="none" stroke="#f9f9f9" stroke-linejoin="round" stroke-width="2.08" d="M23.92 23.92A13.43 13.43 0 0 1 16 26.667C6.666 26.667 1.333 16 1.333 16a24.614 24.614 0 0 1 6.746-7.92M13.2 5.653a12.161 12.161 0 0 1 2.8-.32C25.333 5.333 30.666 16 30.666 16a24.646 24.646 0 0 1-2.88 4.253m-8.959-1.426a4.01 4.01 0 0 1-2.855 1.273 3.996 3.996 0 0 1-3.779-2.501 3.98 3.98 0 0 1 .055-3.126 4.01 4.01 0 0 1 .927-1.298" style="stroke:var(--color1, #f9f9f9)"/>
      <path fill="none" stroke="#f9f9f9" stroke-linecap="round" stroke-linejoin="round" stroke-width="2.08" d="m1.334 1.333 29.333 29.333" style="stroke:var(--color1, #f9f9f9)"/>
    </symbol>
    <symbol id="icon-eye" viewBox="0 0 32 32">
      <path fill="none" stroke="#f9f9f9" stroke-linejoin="round" stroke-width="2.08" d="M16 5.333C25.333 5.333 30.666 16 30.666 16S25.333 26.667 16 26.667C6.666 26.667 1.333 16 1.333 16S6.666 5.333 16 5.333z" style="stroke:var(--color1, #f9f9f9)"/>
      <path fill="none" stroke="#f9f9f9" stroke-linejoin="round" stroke-width="2.08" d="M16 20a4 4 0 1 1 0-8 4 4 0 0 1 0 8z" style="stroke:var(--color1, #f9f9f9)"/>
    </symbol>
    <symbol id="icon-heart-circle" viewBox="0 0 32 32">
<path  d="M15.991 7.561c-2.559-3.022-6.827-3.834-10.033-1.068s-3.658 7.393-1.14 10.665c1.613 2.096 5.743 5.983 8.505 8.506 0.918 0.839 1.376 1.258 1.926 1.426 0.473 0.145 1.012 0.145 1.485 0 0.55-0.168 1.008-0.588 1.926-1.426 2.761-2.524 6.892-6.41 8.505-8.506 2.518-3.272 2.122-7.928-1.14-10.665s-7.474-1.954-10.033 1.068z"></path>
 </symbol>
   <symbol id="icon-close-white" viewBox="0 0 32 32" fill="none">
    <path d="M24 8L8 24"  stroke-width="3" stroke-linecap="round" stroke-linejoin="round" />
  <path d="M8 8L24 24"  stroke-width="3" stroke-linecap="round" stroke-linejoin="round" />
    </symbol>
<symbol id='icon-burger-menu'  viewBox="0 0 32 32">
<path d="M4 16H28" stroke="currentColor" stroke-width="3" stroke-linecap="round" stroke-linejoin="round"/>
<path d="M4 8H28" stroke="currentColor" stroke-width="3" stroke-linecap="round" stroke-linejoin="round"/>
<path d="M4 24H28" stroke="currentColor" stroke-width="3" stroke-linecap="round" stroke-linejoin="round"/>
</symbol>
    <symbol id="icon-hourglass" viewBox="0 0 32 32">
      <path stroke-linecap="round" stroke-linejoin="round" stroke-width="3.2" d="m16 16-5.697-4.748c-.846-.705-1.27-1.058-1.574-1.49a3.978 3.978 0 0 1-.591-1.263c-.137-.511-.137-1.061-.137-2.163V2.667M16 16l5.697-4.748c.847-.705 1.27-1.058 1.574-1.49.27-.383.47-.811.592-1.263C24 7.988 24 7.438 24 6.336V2.667M16 16l-5.697 4.748c-.846.705-1.27 1.058-1.574 1.491-.27.383-.47.81-.591 1.263-.137.51-.137 1.061-.137 2.163v3.669M16 16l5.697 4.748c.847.705 1.27 1.058 1.574 1.491.27.383.47.81.592 1.263.137.51.137 1.061.137 2.163v3.669M5.333 2.667h21.333M5.333 29.333h21.333"/>
    </symbol>
   
<symbol id="icon-user-circle-o" viewBox="0 0 28 28">
<path d="M14 0c7.734 0 14 6.266 14 14 0 7.688-6.234 14-14 14-7.75 0-14-6.297-14-14 0-7.734 6.266-14 14-14zM23.672 21.109c1.453-2 2.328-4.453 2.328-7.109 0-6.609-5.391-12-12-12s-12 5.391-12 12c0 2.656 0.875 5.109 2.328 7.109 0.562-2.797 1.922-5.109 4.781-5.109 1.266 1.234 2.984 2 4.891 2s3.625-0.766 4.891-2c2.859 0 4.219 2.312 4.781 5.109zM20 11c0-3.313-2.688-6-6-6s-6 2.688-6 6 2.688 6 6 6 6-2.688 6-6z"></path>
</symbol>
  <symbol id="close-eye" fill="none" xmlns="http://www.w3.org/2000/svg">
  <g clip-path="url(#clip0_55848_2014)">
    <path d="M16.4463 16.445C14.8793 17.6394 12.9713 18.3011 11.0013 18.3333C4.58464 18.3333 0.917969 11 0.917969 11C2.0582 8.87507 3.63968 7.01855 5.5563 5.555M9.0763 3.88666C9.70727 3.73897 10.3533 3.66514 11.0013 3.66666C17.418 3.66666 21.0846 11 21.0846 11C20.5282 12.041 19.8646 13.021 19.1046 13.9242M12.9446 12.9433C12.6929 13.2135 12.3893 13.4302 12.0519 13.5805C11.7146 13.7308 11.3505 13.8117 10.9812 13.8182C10.612 13.8247 10.2452 13.7568 9.90278 13.6184C9.56036 13.4801 9.2493 13.2743 8.98816 13.0131C8.72703 12.752 8.52116 12.4409 8.38285 12.0985C8.24454 11.7561 8.17662 11.3893 8.18313 11.0201C8.18965 10.6508 8.27047 10.2867 8.42077 9.94936C8.57108 9.61203 8.78778 9.30843 9.05797 9.05666" stroke="#F6B83D" stroke-width="2" stroke-linecap="round" stroke-linejoin="round" />
    <path d="M0.917969 0.916672L21.0846 21.0833" stroke="#F6B83D" stroke-width="2" stroke-linecap="round" stroke-linejoin="round" />
  </g>
</symbol>
<symbol id="open-eye" fill="none" xmlns="http://www.w3.org/2000/svg">
  <g clip-path="url(#clip0_55848_2020)">
    <path d="M0.916016 11C0.916016 11 4.58268 3.66667 10.9993 3.66667C17.416 3.66667 21.0827 11 21.0827 11C21.0827 11 17.416 18.3333 10.9993 18.3333C4.58268 18.3333 0.916016 11 0.916016 11Z" stroke="#F6B83D" stroke-width="2" stroke-linecap="round" stroke-linejoin="round" />
    <path d="M11 13.75C12.5188 13.75 13.75 12.5188 13.75 11C13.75 9.48122 12.5188 8.25 11 8.25C9.48122 8.25 8.25 9.48122 8.25 11C8.25 12.5188 9.48122 13.75 11 13.75Z" stroke="#F6B83D" stroke-width="2" stroke-linecap="round" stroke-linejoin="round" />
  </g>
</symbol>  
   <symbol id="red-false" fill="none" xmlns="http://www.w3.org/2000/svg">
  <path d="M17.4163 4.58331L4.58301 17.4166M4.58305 4.58331L17.4163 17.4166" stroke="#EF2447" stroke-width="2" stroke-linecap="round" stroke-linejoin="round" />
</symbol>
<symbol id="green-success" fill="none" xmlns="http://www.w3.org/2000/svg">
  <path d="M18.3337 6.41667L8.25042 16.5L3.66699 11.9167" stroke="#08AA83" stroke-width="1.5" stroke-linecap="round" stroke-linejoin="round" />
</symbol>
   <symbol id="icon-user-02" viewBox="0 0 32 32">
<path fill="#fff" style="fill: var(--color1, #fff); stroke: var(--color1, #fff)" stroke="#fff" stroke-linejoin="round" stroke-linecap="round" stroke-miterlimit="4" stroke-width="3.5556" d="M16.001 20c-4.227 0-7.986 2.041-10.379 5.208-0.515 0.682-0.773 1.022-0.764 1.483 0.007 0.356 0.23 0.805 0.51 1.025 0.362 0.284 0.865 0.284 1.869 0.284h17.527c1.004 0 1.507 0 1.869-0.284 0.28-0.22 0.503-0.669 0.51-1.025 0.009-0.461-0.249-0.801-0.764-1.483-2.393-3.167-6.152-5.208-10.379-5.208z"></path>
<path fill="#fff" style="fill: var(--color1, #fff); stroke: var(--color1, #fff)" stroke="#fff" stroke-linejoin="round" stroke-linecap="round" stroke-miterlimit="4" stroke-width="3.5556" d="M16 16c3.314 0 6-2.686 6-6s-2.686-6-6-6c-3.314 0-6 2.686-6 6s2.686 6 6 6z"></path>
</symbol>
<symbol id="icon-edit" viewBox="0 0 32 32">
<path fill="#fff4df" style="fill: var(--color1, #fff4df)" d="M16 0c8.837 0 16 7.163 16 16s-7.163 16-16 16c-8.837 0-16-7.163-16-16s7.163-16 16-16z"></path>
<path fill="none" stroke="#f6b83d" style="stroke: var(--color2, #f6b83d)" stroke-linejoin="round" stroke-linecap="round" stroke-miterlimit="4" stroke-width="1.2632" d="M19.158 10.316c0.166-0.166 0.363-0.297 0.58-0.387s0.449-0.136 0.684-0.136 0.467 0.046 0.684 0.136c0.217 0.090 0.414 0.221 0.58 0.387s0.297 0.363 0.387 0.58c0.090 0.217 0.136 0.449 0.136 0.684s-0.046 0.467-0.136 0.684c-0.090 0.217-0.221 0.414-0.387 0.58l-8.526 8.526-3.474 0.947 0.947-3.474 8.526-8.526z"></path>
</symbol>
<symbol id="loupe" fill="none" xmlns="http://www.w3.org/2000/svg">
  <path d="M8.25 14.25C11.5637 14.25 14.25 11.5637 14.25 8.25C14.25 4.93629 11.5637 2.25 8.25 2.25C4.93629 2.25 2.25 4.93629 2.25 8.25C2.25 11.5637 4.93629 14.25 8.25 14.25Z" stroke="#262626" stroke-width="1.5" stroke-linecap="round" stroke-linejoin="round" />
  <path d="M15.7508 15.75L12.4883 12.4875" stroke="#262626" stroke-width="1.5" stroke-linecap="round" stroke-linejoin="round" />
</symbol>
  
    <symbol id="icon-menu" viewBox="0 0 32 32">
      <path fill="none" stroke="#f9f9f9" stroke-linecap="round" stroke-linejoin="round" stroke-width="2.286" d="M4 16h24M4 8h24M12 24h16" style="stroke:var(--color1, #f9f9f9)"/>
    </symbol>

   <symbol id="arrow-left" fill="none" xmlns="http://www.w3.org/2000/svg">
  <path d="M8.83387 10.5917C8.75576 10.5142 8.69377 10.4221 8.65146 10.3205C8.60915 10.219 8.58737 10.11 8.58737 10C8.58737 9.89001 8.60915 9.78109 8.65146 9.67954C8.69377 9.57799 8.75576 9.48582 8.83387 9.40835L12.6589 5.59168C12.737 5.51421 12.799 5.42204 12.8413 5.32049C12.8836 5.21894 12.9054 5.11002 12.9054 5.00001C12.9054 4.89 12.8836 4.78108 12.8413 4.67953C12.799 4.57798 12.737 4.48581 12.6589 4.40834C12.5027 4.25313 12.2915 4.16602 12.0714 4.16602C11.8512 4.16602 11.64 4.25313 11.4839 4.40834L7.65887 8.23335C7.1907 8.7021 6.92773 9.33752 6.92773 10C6.92773 10.6625 7.1907 11.2979 7.65887 11.7667L11.4839 15.5917C11.6391 15.7457 11.8486 15.8324 12.0672 15.8334C12.1769 15.834 12.2856 15.813 12.3871 15.7715C12.4887 15.73 12.581 15.6689 12.6589 15.5917C12.737 15.5142 12.799 15.4221 12.8413 15.3205C12.8836 15.219 12.9054 15.11 12.9054 15C12.9054 14.89 12.8836 14.7811 12.8413 14.6795C12.799 14.578 12.737 14.4858 12.6589 14.4084L8.83387 10.5917Z" fill="#262626" fill-opacity="0.5" />
</symbol>
<symbol id="arrow-right" fill="none" xmlns="http://www.w3.org/2000/svg">
  <path d="M11.1661 10.5917C11.2442 10.5142 11.3062 10.422 11.3485 10.3205C11.3908 10.2189 11.4126 10.11 11.4126 10C11.4126 9.89001 11.3908 9.78108 11.3485 9.67953C11.3062 9.57798 11.2442 9.48582 11.1661 9.40835L7.34113 5.59168C7.26302 5.51421 7.20103 5.42204 7.15872 5.32049C7.11641 5.21894 7.09463 5.11002 7.09463 5.00001C7.09463 4.89 7.11641 4.78108 7.15872 4.67953C7.20103 4.57798 7.26302 4.48581 7.34113 4.40834C7.49727 4.25313 7.70848 4.16602 7.92863 4.16602C8.14879 4.16602 8.36 4.25313 8.51613 4.40834L12.3411 8.23335C12.8093 8.7021 13.0723 9.33751 13.0723 10C13.0723 10.6625 12.8093 11.2979 12.3411 11.7667L8.51613 15.5917C8.36091 15.7456 8.15142 15.8324 7.9328 15.8334C7.82313 15.834 7.71441 15.813 7.61288 15.7715C7.51134 15.73 7.419 15.6689 7.34113 15.5917C7.26302 15.5142 7.20103 15.4221 7.15872 15.3205C7.11641 15.219 7.09463 15.11 7.09463 15C7.09463 14.89 7.11641 14.7811 7.15872 14.6795C7.20103 14.578 7.26302 14.4858 7.34113 14.4084L11.1661 10.5917Z" fill="#262626" />
</symbol>
<symbol id="icon-angle-double-right" viewBox="0 0 16 28">
<path d="M9.297 15c0 0.125-0.063 0.266-0.156 0.359l-7.281 7.281c-0.094 0.094-0.234 0.156-0.359 0.156s-0.266-0.063-0.359-0.156l-0.781-0.781c-0.094-0.094-0.156-0.234-0.156-0.359s0.063-0.266 0.156-0.359l6.141-6.141-6.141-6.141c-0.094-0.094-0.156-0.234-0.156-0.359s0.063-0.266 0.156-0.359l0.781-0.781c0.094-0.094 0.234-0.156 0.359-0.156s0.266 0.063 0.359 0.156l7.281 7.281c0.094 0.094 0.156 0.234 0.156 0.359zM15.297 15c0 0.125-0.063 0.266-0.156 0.359l-7.281 7.281c-0.094 0.094-0.234 0.156-0.359 0.156s-0.266-0.063-0.359-0.156l-0.781-0.781c-0.094-0.094-0.156-0.234-0.156-0.359s0.063-0.266 0.156-0.359l6.141-6.141-6.141-6.141c-0.094-0.094-0.156-0.234-0.156-0.359s0.063-0.266 0.156-0.359l0.781-0.781c0.094-0.094 0.234-0.156 0.359-0.156s0.266 0.063 0.359 0.156l7.281 7.281c0.094 0.094 0.156 0.234 0.156 0.359z"></path>
</symbol>
<symbol id="icon-angle-double-left" viewBox="0 0 16 28">
<path d="M9.797 21.5c0 0.125-0.063 0.266-0.156 0.359l-0.781 0.781c-0.094 0.094-0.234 0.156-0.359 0.156s-0.266-0.063-0.359-0.156l-7.281-7.281c-0.094-0.094-0.156-0.234-0.156-0.359s0.063-0.266 0.156-0.359l7.281-7.281c0.094-0.094 0.234-0.156 0.359-0.156s0.266 0.063 0.359 0.156l0.781 0.781c0.094 0.094 0.156 0.234 0.156 0.359s-0.063 0.266-0.156 0.359l-6.141 6.141 6.141 6.141c0.094 0.094 0.156 0.234 0.156 0.359zM15.797 21.5c0 0.125-0.063 0.266-0.156 0.359l-0.781 0.781c-0.094 0.094-0.234 0.156-0.359 0.156s-0.266-0.063-0.359-0.156l-7.281-7.281c-0.094-0.094-0.156-0.234-0.156-0.359s0.063-0.266 0.156-0.359l7.281-7.281c0.094-0.094 0.234-0.156 0.359-0.156s0.266 0.063 0.359 0.156l0.781 0.781c0.094 0.094 0.156 0.234 0.156 0.359s-0.063 0.266-0.156 0.359l-6.141 6.141 6.141 6.141c0.094 0.094 0.156 0.234 0.156 0.359z"></path>
</symbol>

<symbol id="icon-keyboard_arrow_right" viewBox="0 0 24 24">
<path d="M8.578 16.594l4.594-4.594-4.594-4.594 1.406-1.406 6 6-6 6z"></path>
</symbol>
<symbol id="icon-keyboard_arrow_left" viewBox="0 0 24 24">
<path d="M15.422 16.594l-1.406 1.406-6-6 6-6 1.406 1.406-4.594 4.594z"></path>
</symbol>
<symbol id="star" fill="currentColor" xmlns="http://www.w3.org/2000/svg">
<path d="M6.20021 4.69703L8 1.28579L9.79979 4.69703C9.95896 4.9987 10.2491 5.20947 10.5851 5.26762L14.3856 5.92519L11.6975 8.69103C11.4598 8.93563 11.3489 9.27666 11.3975 9.61427L11.9465 13.4319L8.48537 11.7301C8.17929 11.5795 7.82071 11.5795 7.51463 11.7301L4.05348 13.4319L4.6025 9.61427C4.65105 9.27666 4.54024 8.93563 4.30252 8.69103L1.6144 5.92519L5.41486 5.26762C5.75095 5.20947 6.04104 4.9987 6.20021 4.69703Z"  stroke-width="1.2"/>
</symbol>
<svg id="favorite-heart" fill="currentColor" xmlns="http://www.w3.org/2000/svg">
  <path d="M15.6286 3.4574C15.2456 3.07416 14.7907 2.77014 14.2901 2.56272C13.7895 2.3553 13.253 2.24854 12.7111 2.24854C12.1693 2.24854 11.6327 2.3553 11.1321 2.56272C10.6315 2.77014 10.1767 3.07416 9.79362 3.4574L8.99862 4.2524L8.20362 3.4574C7.42985 2.68364 6.3804 2.24894 5.28612 2.24894C4.19185 2.24894 3.14239 2.68364 2.36862 3.4574C1.59486 4.23117 1.16016 5.28063 1.16016 6.3749C1.16016 7.46918 1.59486 8.51864 2.36862 9.2924L3.16362 10.0874L8.99862 15.9224L14.8336 10.0874L15.6286 9.2924C16.0119 8.90934 16.3159 8.45451 16.5233 7.95392C16.7307 7.45333 16.8375 6.91677 16.8375 6.3749C16.8375 5.83304 16.7307 5.29648 16.5233 4.79589C16.3159 4.29529 16.0119 3.84047 15.6286 3.4574Z"  stroke-width="1.5" stroke-linecap="round" stroke-linejoin="round" />
</svg>
  </defs>
</svg>

