<svg width="0" height="0" class="hidden">
  <symbol fill="none" xmlns="http://www.w3.org/2000/svg" viewBox="0 0 20 20" id="calendar">
    <path d="M15.8333 3.33333H4.16667C3.24619 3.33333 2.5 4.07952 2.5 4.99999V16.6667C2.5 17.5871 3.24619 18.3333 4.16667 18.3333H15.8333C16.7538 18.3333 17.5 17.5871 17.5 16.6667V4.99999C17.5 4.07952 16.7538 3.33333 15.8333 3.33333Z" stroke="#262626" stroke-width="1.8" stroke-linecap="round" stroke-linejoin="round"></path>
    <path d="M13.333 1.66667V5" stroke="#262626" stroke-width="1.8" stroke-linecap="round" stroke-linejoin="round"></path>
    <path d="M6.66699 1.66667V5" stroke="#262626" stroke-width="1.8" stroke-linecap="round" stroke-linejoin="round"></path>
    <path d="M2.5 8.33333H17.5" stroke="#262626" stroke-width="1.8" stroke-linecap="round" stroke-linejoin="round"></path>
  </symbol>
  <symbol fill="none" xmlns="http://www.w3.org/2000/svg" viewBox="0 0 22 22" id="check">
    <path d="M18.3337 6.41667L8.25042 16.5L3.66699 11.9167" stroke="#08AA83" stroke-width="1.5" stroke-linecap="round" stroke-linejoin="round"></path>
  </symbol>
  <symbol fill="none" xmlns="http://www.w3.org/2000/svg" viewBox="0 0 18 18" id="chevron-down">
    <path d="M4.5 6.75L9 11.25L13.5 6.75" stroke="#262626" stroke-width="2" stroke-linecap="round" stroke-linejoin="round"></path>
  </symbol>
  <symbol fill="none" xmlns="http://www.w3.org/2000/svg" viewBox="0 0 22 22" id="cross-small">
    <path d="M17.4163 4.58333L4.58301 17.4167M4.58305 4.58333L17.4163 17.4167" stroke="#EF2447" stroke-width="2" stroke-linecap="round" stroke-linejoin="round"></path>
  </symbol>
  <symbol fill="none" xmlns="http://www.w3.org/2000/svg" viewBox="0 0 22 22" id="eye">
    <g clip-path="url(#clip0_55848_2020)">
      <path d="M0.916016 11C0.916016 11 4.58268 3.66667 10.9993 3.66667C17.416 3.66667 21.0827 11 21.0827 11C21.0827 11 17.416 18.3333 10.9993 18.3333C4.58268 18.3333 0.916016 11 0.916016 11Z" stroke="#F6B83D" stroke-width="2" stroke-linecap="round" stroke-linejoin="round"></path>
      <path d="M11 13.75C12.5188 13.75 13.75 12.5188 13.75 11C13.75 9.48122 12.5188 8.25 11 8.25C9.48122 8.25 8.25 9.48122 8.25 11C8.25 12.5188 9.48122 13.75 11 13.75Z" stroke="#F6B83D" stroke-width="2" stroke-linecap="round" stroke-linejoin="round"></path>
    </g>
    <defs>
      <clipPath id="clip0_55848_2020">
        <rect width="22" height="22" fill="white"></rect>
      </clipPath>
    </defs>
  </symbol>
  <symbol fill="none" xmlns="http://www.w3.org/2000/svg" viewBox="0 0 22 22" id="eye-off (1)">
    <g clip-path="url(#clip0_55848_2014)">
      <path d="M16.4463 16.445C14.8793 17.6394 12.9713 18.3011 11.0013 18.3333C4.58464 18.3333 0.917969 11 0.917969 11C2.0582 8.87507 3.63968 7.01855 5.5563 5.555M9.0763 3.88666C9.70727 3.73897 10.3533 3.66514 11.0013 3.66666C17.418 3.66666 21.0846 11 21.0846 11C20.5282 12.041 19.8646 13.021 19.1046 13.9242M12.9446 12.9433C12.6929 13.2135 12.3893 13.4302 12.0519 13.5805C11.7146 13.7308 11.3505 13.8117 10.9812 13.8182C10.612 13.8247 10.2452 13.7568 9.90278 13.6184C9.56036 13.4801 9.2493 13.2743 8.98816 13.0131C8.72703 12.752 8.52116 12.4409 8.38285 12.0985C8.24454 11.7561 8.17662 11.3893 8.18313 11.0201C8.18965 10.6508 8.27047 10.2867 8.42077 9.94936C8.57108 9.61203 8.78778 9.30843 9.05797 9.05666" stroke="#F6B83D" stroke-width="2" stroke-linecap="round" stroke-linejoin="round"></path>
      <path d="M0.917969 0.916672L21.0846 21.0833" stroke="#F6B83D" stroke-width="2" stroke-linecap="round" stroke-linejoin="round"></path>
    </g>
    <defs>
      <clipPath id="clip0_55848_2014">
        <rect width="22" height="22" fill="white"></rect>
      </clipPath>
    </defs>
  </symbol>
  <symbol fill="none" xmlns="http://www.w3.org/2000/svg" viewBox="0 0 50 50" id="icon">
    <circle cx="25" cy="25" r="25" fill="#FFF4DF"></circle>
    <path d="M24.9999 28C21.8298 28 19.0106 29.5306 17.2158 31.906C16.8296 32.4172 16.6364 32.6728 16.6427 33.0183C16.6476 33.2852 16.8152 33.6219 17.0252 33.7867C17.297 34 17.6737 34 18.4271 34H31.5726C32.326 34 32.7027 34 32.9745 33.7867C33.1845 33.6219 33.3521 33.2852 33.357 33.0183C33.3633 32.6728 33.1701 32.4172 32.7839 31.906C30.9891 29.5306 28.1699 28 24.9999 28Z" fill="#F6B83D" stroke="#F6B83D" stroke-width="2" stroke-linecap="round" stroke-linejoin="round"></path>
    <path d="M25 25C27.4853 25 29.5 22.9853 29.5 20.5C29.5 18.0147 27.4853 16 25 16C22.5147 16 20.5 18.0147 20.5 20.5C20.5 22.9853 22.5147 25 25 25Z" fill="#F6B83D" stroke="#F6B83D" stroke-width="2" stroke-linecap="round" stroke-linejoin="round"></path>
  </symbol>
  <symbol fill="none" xmlns="http://www.w3.org/2000/svg" viewBox="0 0 18 18" id="search">
    <path d="M8.25 14.25C11.5637 14.25 14.25 11.5637 14.25 8.25C14.25 4.93629 11.5637 2.25 8.25 2.25C4.93629 2.25 2.25 4.93629 2.25 8.25C2.25 11.5637 4.93629 14.25 8.25 14.25Z" stroke="#262626" stroke-width="2" stroke-linecap="round" stroke-linejoin="round"></path>
    <path d="M15.7508 15.75L12.4883 12.4875" stroke="#262626" stroke-width="2" stroke-linecap="round" stroke-linejoin="round"></path>
  </symbol>
  <symbol fill="none" xmlns="http://www.w3.org/2000/svg" viewBox="0 0 16 15" id="Star 2">
    <path d="M6.20021 4.69703L8 1.28579L9.79979 4.69703C9.95896 4.9987 10.2491 5.20947 10.5851 5.26762L14.3856 5.92519L11.6975 8.69103C11.4598 8.93563 11.3489 9.27666 11.3975 9.61427L11.9465 13.4319L8.48537 11.7301C8.17929 11.5795 7.82071 11.5795 7.51463 11.7301L4.05348 13.4319L4.6025 9.61427C4.65105 9.27666 4.54024 8.93563 4.30252 8.69103L1.6144 5.92519L5.41486 5.26762C5.75095 5.20947 6.04104 4.9987 6.20021 4.69703Z" fill="#FFC531" stroke="#FFC531" stroke-width="1.2"></path>
  </symbol>
   <symbol fill="none" xmlns="http://www.w3.org/2000/svg" viewBox="0 0 398 398" id="Ellipse119">
    <path opacity="0.3" d="M1.66876 182.741C-1.75311 224.271 8.01509 265.822 29.5824 301.478C51.1498 337.133 83.4167 365.075 121.789 381.325C160.161 397.575 202.681 401.304 243.296 391.981C283.911 382.659 320.549 360.76 347.993 329.403C375.438 298.046 392.29 258.83 396.149 217.338C400.008 175.846 390.679 134.194 369.488 98.3135C348.298 62.4327 316.327 34.1522 278.129 17.4988C239.93 0.845467 197.451 -3.33165 156.74 5.56227" stroke="white" stroke-width="2"></path>
  </symbol>
  <symbol version="1.1" xmlns="http://www.w3.org/2000/svg" viewBox="0 0 1182 1024" id="heard_mobile">
    <g id="icomoon-ignore"></g>
    <path d="M590.418 158.861c-107.091-126.443-285.674-160.456-419.852-44.672s-153.069 309.369-47.698 446.307c67.49 87.71 240.336 250.355 355.887 355.961 38.4 35.1 57.599 52.649 80.597 59.683 19.77 6.049 42.361 6.049 62.131 0 22.997-7.034 42.197-24.584 80.597-59.683 115.553-105.606 288.396-268.251 355.886-355.961 105.37-136.938 88.789-331.741-47.695-446.307s-312.761-81.771-419.853 44.672z"></path>
  </symbol>
<symbol fill="none" xmlns="http://www.w3.org/2000/svg" viewBox="0 0 32 32" id="burger-menu">
    <path d="M4 16H28" stroke="white" stroke-width="3" stroke-linecap="round" stroke-linejoin="round"></path>
    <path d="M4 8H28" stroke="white" stroke-width="3" stroke-linecap="round" stroke-linejoin="round"></path>
    <path d="M4 24H28" stroke="white" stroke-width="3" stroke-linecap="round" stroke-linejoin="round"></path>
  </symbol>
  <symbol fill="none" xmlns="http://www.w3.org/2000/svg" viewBox="0 0 32 32" id="x_black">
    <path d="M24 8L8 24" stroke="#262626" stroke-width="3" stroke-linecap="round" stroke-linejoin="round"></path>
    <path d="M8 8L24 24" stroke="#262626" stroke-width="3" stroke-linecap="round" stroke-linejoin="round"></path>
  </symbol>

   <symbol version="1.1" xmlns="http://www.w3.org/2000/svg" viewBox="0 0 1024 1024" id="burger">
    <g id="icomoon-ignore"></g>
    <path fill="none" stroke-linejoin="round" stroke-linecap="round" stroke-miterlimit="4" stroke-width="96" stroke="" d="M128 512h768"></path>
    <path fill="none" stroke-linejoin="round" stroke-linecap="round" stroke-miterlimit="4" stroke-width="96" stroke="" d="M128 256h768"></path>
    <path fill="none" stroke-linejoin="round" stroke-linecap="round" stroke-miterlimit="4" stroke-width="96" stroke="" d="M128 768h768"></path>
  </symbol>
  <symbol version="1.1" xmlns="http://www.w3.org/2000/svg" viewBox="0 0 1024 1024" id="x">
    <g id="icomoon-ignore"></g>
    <path fill="none" stroke-linejoin="round" stroke-linecap="round" stroke-miterlimit="4" stroke-width="96" stroke="" d="M768 256l-512 512"></path>
    <path fill="none" stroke-linejoin="round" stroke-linecap="round" stroke-miterlimit="4" stroke-width="96" stroke="" d="M256 256l512 512"></path>
  </symbol>
  <symbol fill="none" xmlns="http://www.w3.org/2000/svg" viewBox="0 0 22 22" id="check">
    <path d="M18.3337 6.41667L8.25042 16.5L3.66699 11.9167" stroke="#08AA83" stroke-width="1.5" stroke-linecap="round" stroke-linejoin="round"></path>
  </symbol>
  <symbol fill="none" xmlns="http://www.w3.org/2000/svg" viewBox="0 0 22 22" id="cross-small">
    <path d="M17.4163 4.58333L4.58301 17.4167M4.58305 4.58333L17.4163 17.4167" stroke="#EF2447" stroke-width="2" stroke-linecap="round" stroke-linejoin="round"></path>
  </symbol>
  <symbol fill="none" xmlns="http://www.w3.org/2000/svg" viewBox="0 0 22 22" id="eye">
    <g clip-path="url(#clip0_55848_2020)">
      <path d="M0.916016 11C0.916016 11 4.58268 3.66667 10.9993 3.66667C17.416 3.66667 21.0827 11 21.0827 11C21.0827 11 17.416 18.3333 10.9993 18.3333C4.58268 18.3333 0.916016 11 0.916016 11Z" stroke="#F6B83D" stroke-width="2" stroke-linecap="round" stroke-linejoin="round"></path>
      <path d="M11 13.75C12.5188 13.75 13.75 12.5188 13.75 11C13.75 9.48122 12.5188 8.25 11 8.25C9.48122 8.25 8.25 9.48122 8.25 11C8.25 12.5188 9.48122 13.75 11 13.75Z" stroke="#F6B83D" stroke-width="2" stroke-linecap="round" stroke-linejoin="round"></path>
    </g>
    <defs>
      <clipPath id="clip0_55848_2020">
        <rect width="22" height="22" fill="white"></rect>
      </clipPath>
    </defs>
  </symbol>
  <symbol fill="none" xmlns="http://www.w3.org/2000/svg" viewBox="0 0 22 22" id="eye-off">
    <g clip-path="url(#clip0_55848_2014)">
      <path d="M16.4463 16.445C14.8793 17.6394 12.9713 18.3011 11.0013 18.3333C4.58464 18.3333 0.917969 11 0.917969 11C2.0582 8.87507 3.63968 7.01855 5.5563 5.555M9.0763 3.88666C9.70727 3.73897 10.3533 3.66514 11.0013 3.66666C17.418 3.66666 21.0846 11 21.0846 11C20.5282 12.041 19.8646 13.021 19.1046 13.9242M12.9446 12.9433C12.6929 13.2135 12.3893 13.4302 12.0519 13.5805C11.7146 13.7308 11.3505 13.8117 10.9812 13.8182C10.612 13.8247 10.2452 13.7568 9.90278 13.6184C9.56036 13.4801 9.2493 13.2743 8.98816 13.0131C8.72703 12.752 8.52116 12.4409 8.38285 12.0985C8.24454 11.7561 8.17662 11.3893 8.18313 11.0201C8.18965 10.6508 8.27047 10.2867 8.42077 9.94936C8.57108 9.61203 8.78778 9.30843 9.05797 9.05666" stroke="#F6B83D" stroke-width="2" stroke-linecap="round" stroke-linejoin="round"></path>
      <path d="M0.917969 0.916672L21.0846 21.0833" stroke="#F6B83D" stroke-width="2" stroke-linecap="round" stroke-linejoin="round"></path>
    </g>
    <defs>
      <clipPath id="clip0_55848_2014">
        <rect width="22" height="22" fill="white"></rect>
      </clipPath>
    </defs>
  </symbol>
  <symbol fill="none" xmlns="http://www.w3.org/2000/svg" viewBox="0 0 18 18" id="search">
    <path d="M8.25 14.25C11.5637 14.25 14.25 11.5637 14.25 8.25C14.25 4.93629 11.5637 2.25 8.25 2.25C4.93629 2.25 2.25 4.93629 2.25 8.25C2.25 11.5637 4.93629 14.25 8.25 14.25Z" stroke="#262626" stroke-width="2" stroke-linecap="round" stroke-linejoin="round"></path>
    <path d="M15.7508 15.75L12.4883 12.4875" stroke="#262626" stroke-width="2" stroke-linecap="round" stroke-linejoin="round"></path>
  </symbol>
  <symbol fill="none" xmlns="http://www.w3.org/2000/svg" viewBox="0 0 14 14" id="black-x">
    <path d="M12.25 1.75L1.75 12.25M1.75003 1.75L12.25 12.25" stroke="#262626" stroke-width="2" stroke-linecap="round" stroke-linejoin="round"></path>
  </symbol>
  <symbol fill="none" xmlns="http://www.w3.org/2000/svg" viewBox="0 0 7 12" id="Vector_black_right">
    <path d="M4.16711 6.59171C4.24522 6.51424 4.30721 6.42208 4.34952 6.32053C4.39183 6.21898 4.41361 6.11006 4.41361 6.00005C4.41361 5.89004 4.39183 5.78111 4.34952 5.67956C4.30721 5.57802 4.24522 5.48585 4.16711 5.40838L0.342108 1.59171C0.264001 1.51424 0.202005 1.42207 0.159698 1.32052C0.117391 1.21897 0.0956096 1.11005 0.0956096 1.00004C0.0956096 0.890031 0.117391 0.781109 0.159698 0.67956C0.202005 0.57801 0.264001 0.485843 0.342108 0.408373C0.498244 0.253164 0.709454 0.166046 0.929608 0.166046C1.14976 0.166046 1.36097 0.253164 1.51711 0.408373L5.34211 4.23338C5.81028 4.70213 6.07324 5.33754 6.07324 6.00005C6.07324 6.66255 5.81028 7.29796 5.34211 7.76671L1.51711 11.5917C1.36189 11.7457 1.15239 11.8325 0.933775 11.8334C0.824103 11.834 0.715384 11.813 0.613852 11.7715C0.512321 11.7301 0.419975 11.669 0.342108 11.5917C0.264001 11.5142 0.202005 11.4221 0.159698 11.3205C0.117391 11.219 0.0956096 11.1101 0.0956096 11.0001C0.0956096 10.89 0.117391 10.7811 0.159698 10.6796C0.202005 10.578 0.264001 10.4859 0.342108 10.4084L4.16711 6.59171Z" fill="#262626"></path>
  </symbol>
  <symbol version="1.1" xmlns="http://www.w3.org/2000/svg" viewBox="0 0 19 32" id="Vector_black_left">
    <path d="M7.544 14.422c-0.208 0.207-0.374 0.452-0.486 0.723s-0.171 0.561-0.171 0.855c0 0.293 0.058 0.584 0.171 0.855s0.278 0.517 0.486 0.723l10.2 10.178c0.208 0.207 0.374 0.452 0.486 0.723s0.171 0.561 0.171 0.855c0 0.293-0.058 0.584-0.171 0.855s-0.278 0.517-0.486 0.723c-0.416 0.414-0.98 0.646-1.567 0.646s-1.15-0.232-1.567-0.646l-10.2-10.2c-1.248-1.25-1.95-2.944-1.95-4.711s0.701-3.461 1.95-4.711l10.2-10.2c0.414-0.411 0.973-0.642 1.556-0.645 0.292-0.002 0.582 0.054 0.853 0.165s0.517 0.273 0.725 0.479c0.208 0.207 0.374 0.452 0.486 0.723s0.171 0.561 0.171 0.854c0 0.294-0.058 0.584-0.171 0.855s-0.278 0.517-0.486 0.723l-10.2 10.178z"></path>
  </symbol>
  <symbol fill="none" xmlns="http://www.w3.org/2000/svg" viewBox="0 0 18 18" id="edit">
    <g clip-path="url(#clip0_55824_9070)">
      <path d="M12.75 2.25C12.947 2.05301 13.1808 1.89676 13.4382 1.79015C13.6956 1.68355 13.9714 1.62868 14.25 1.62868C14.5286 1.62868 14.8044 1.68355 15.0618 1.79015C15.3192 1.89676 15.553 2.05301 15.75 2.25C15.947 2.44698 16.1032 2.68083 16.2098 2.9382C16.3164 3.19557 16.3713 3.47142 16.3713 3.75C16.3713 4.02857 16.3164 4.30442 16.2098 4.56179C16.1032 4.81916 15.947 5.05301 15.75 5.25L5.625 15.375L1.5 16.5L2.625 12.375L12.75 2.25Z" stroke="#F6B83D" stroke-width="1.5" stroke-linecap="round" stroke-linejoin="round"></path>
    </g>
    <defs>
      <clipPath id="clip0_55824_9070">
        <rect width="18" height="18" fill="white"></rect>
      </clipPath>
    </defs>
  </symbol>
  <symbol fill="none" xmlns="http://www.w3.org/2000/svg" viewBox="0 0 18 18" id="user">
    <path d="M9.00038 11.25C6.62282 11.25 4.50847 12.398 3.16237 14.1795C2.87265 14.5629 2.7278 14.7546 2.73253 15.0137C2.7362 15.2139 2.8619 15.4664 3.0194 15.59C3.22327 15.75 3.50578 15.75 4.0708 15.75H13.93C14.495 15.75 14.7775 15.75 14.9814 15.59C15.1389 15.4664 15.2646 15.2139 15.2682 15.0137C15.273 14.7546 15.1281 14.5629 14.8384 14.1795C13.4923 12.398 11.3779 11.25 9.00038 11.25Z" fill="white" stroke="white" stroke-width="2" stroke-linecap="round" stroke-linejoin="round"></path>
    <path d="M9 9C10.864 9 12.375 7.48896 12.375 5.625C12.375 3.76104 10.864 2.25 9 2.25C7.13604 2.25 5.625 3.76104 5.625 5.625C5.625 7.48896 7.13604 9 9 9Z" fill="white" stroke="white" stroke-width="2" stroke-linecap="round" stroke-linejoin="round"></path>
  </symbol>
   <symbol fill="none" xmlns="http://www.w3.org/2000/svg" viewBox="0 0 40 40" id="user-foto">
    <path d="M19.9991 25C14.7156 25 10.0171 27.5511 7.02576 31.5099C6.38194 32.362 6.06003 32.788 6.07056 33.3638C6.0787 33.8086 6.35803 34.3698 6.70804 34.6445C7.16108 35 7.78888 35 9.04449 35H30.9537C32.2093 35 32.8371 35 33.2902 34.6445C33.6402 34.3698 33.9195 33.8086 33.9276 33.3638C33.9382 32.788 33.6163 32.362 32.9724 31.5099C29.9811 27.5511 25.2826 25 19.9991 25Z" fill="#F6B83D" stroke="#F6B83D" stroke-width="2" stroke-linecap="round" stroke-linejoin="round"></path>
    <path d="M20 20C24.1421 20 27.5 16.6421 27.5 12.5C27.5 8.35786 24.1421 5 20 5C15.8579 5 12.5 8.35786 12.5 12.5C12.5 16.6421 15.8579 20 20 20Z" fill="#F6B83D" stroke="#F6B83D" stroke-width="2" stroke-linecap="round" stroke-linejoin="round"></path>
  </symbol>
  <symbol fill="none" xmlns="http://www.w3.org/2000/svg" viewBox="0 0 18 18" id="upload-cloud">
    <path d="M12 12L9 9L6 12" stroke="#F6B83D" stroke-width="1.3" stroke-linecap="round" stroke-linejoin="round"></path>
    <path d="M9 9V15.75" stroke="#F6B83D" stroke-width="1.3" stroke-linecap="round" stroke-linejoin="round"></path>
    <path d="M15.2926 13.7925C16.0241 13.3937 16.602 12.7626 16.935 11.999C17.268 11.2353 17.3372 10.3824 17.1317 9.575C16.9262 8.7676 16.4577 8.05162 15.8001 7.54007C15.1425 7.02852 14.3332 6.75054 13.5001 6.74999H12.5551C12.3281 5.87192 11.905 5.05674 11.3175 4.36573C10.7301 3.67473 9.99372 3.12588 9.16366 2.76044C8.3336 2.39501 7.4315 2.22251 6.52518 2.2559C5.61885 2.28929 4.73189 2.52771 3.93097 2.95324C3.13006 3.37876 2.43602 3.98031 1.90106 4.71267C1.36609 5.44503 1.00411 6.28914 0.842327 7.18153C0.680545 8.07393 0.723171 8.99138 0.967002 9.86493C1.21083 10.7385 1.64952 11.5454 2.25009 12.225" stroke="#F6B83D" stroke-width="1.3" stroke-linecap="round" stroke-linejoin="round"></path>
    <path d="M12 12L9 9L6 12" stroke="#F6B83D" stroke-width="1.3" stroke-linecap="round" stroke-linejoin="round"></path>
  </symbol>
  <symbol fill="none" xmlns="http://www.w3.org/2000/svg" viewBox="0 0 18 18" id="plus">
    <path d="M9 3.75V14.25" stroke="white" stroke-width="1.5" stroke-linecap="round" stroke-linejoin="round"></path>
    <path d="M3.75 9H14.25" stroke="white" stroke-width="1.5" stroke-linecap="round" stroke-linejoin="round"></path>
  </symbol>
   <symbol fill="none" xmlns="http://www.w3.org/2000/svg" viewBox="0 0 34 34" id="footprint">
    <path d="M13.2812 5.3125C12.1444 5.3125 11.1541 5.9585 10.5251 6.84038C9.89613 7.72225 9.5625 8.86125 9.5625 10.0938C9.5625 11.3263 9.89613 12.4663 10.5251 13.3482C11.1541 14.2301 12.1444 14.875 13.2812 14.875C14.4181 14.875 15.4084 14.229 16.0374 13.3471C16.6664 12.4653 17 11.3263 17 10.0938C17 8.86125 16.6664 7.72119 16.0374 6.83931C15.4084 5.95744 14.4181 5.3125 13.2812 5.3125ZM17 10.0938C17 11.3263 17.3336 12.4663 17.9626 13.3482C18.5916 14.2301 19.5829 14.875 20.7188 14.875C21.8556 14.875 22.8459 14.229 23.4749 13.3471C24.1039 12.4653 24.4375 11.3263 24.4375 10.0938C24.4375 8.86125 24.1039 7.72119 23.4749 6.83931C22.8459 5.95744 21.8556 5.3125 20.7188 5.3125C19.5819 5.3125 18.5916 5.9585 17.9626 6.84038C17.3336 7.72225 17 8.86125 17 10.0938ZM13.2812 7.4375C13.6128 7.4375 13.9783 7.60325 14.3119 8.06862C14.6413 8.53294 14.875 9.27244 14.875 10.0938C14.875 10.9151 14.6413 11.6556 14.3119 12.1189C13.9783 12.5842 13.6128 12.75 13.2812 12.75C12.9497 12.75 12.5842 12.5842 12.2506 12.1189C11.9212 11.6546 11.6875 10.9151 11.6875 10.0938C11.6875 9.27244 11.9212 8.53187 12.2506 8.06862C12.5842 7.60325 12.9497 7.4375 13.2812 7.4375ZM20.7188 7.4375C21.0502 7.4375 21.4157 7.60325 21.7494 8.06862C22.0787 8.53294 22.3125 9.27244 22.3125 10.0938C22.3125 10.9151 22.0787 11.6556 21.7494 12.1189C21.4157 12.5842 21.0502 12.75 20.7188 12.75C20.3873 12.75 20.0218 12.5842 19.6881 12.1189C19.3588 11.6546 19.125 10.9151 19.125 10.0938C19.125 9.27244 19.3588 8.53187 19.6881 8.06862C20.0218 7.60325 20.3873 7.4375 20.7188 7.4375ZM7.96875 12.75C6.83187 12.75 5.84163 13.396 5.21263 14.2779C4.58363 15.1597 4.25 16.2987 4.25 17.5312C4.25 18.7638 4.58363 19.9038 5.21263 20.7857C5.84163 21.6676 6.83187 22.3125 7.96875 22.3125C9.10563 22.3125 10.0959 21.6665 10.7249 20.7846C11.3539 19.9028 11.6875 18.7638 11.6875 17.5312C11.6875 16.2987 11.3539 15.1587 10.7249 14.2768C10.0959 13.3949 9.10563 12.75 7.96875 12.75ZM26.0312 12.75C24.8944 12.75 23.9041 13.396 23.2751 14.2779C22.6461 15.1597 22.3125 16.2987 22.3125 17.5312C22.3125 18.7638 22.6461 19.9038 23.2751 20.7857C23.9041 21.6676 24.8944 22.3125 26.0312 22.3125C27.1681 22.3125 28.1584 21.6665 28.7874 20.7846C29.4164 19.9028 29.75 18.7638 29.75 17.5312C29.75 16.2987 29.4164 15.1587 28.7874 14.2768C28.1584 13.3949 27.1681 12.75 26.0312 12.75ZM7.96875 14.875C8.30025 14.875 8.66575 15.0407 8.99938 15.5061C9.32875 15.9704 9.5625 16.7099 9.5625 17.5312C9.5625 18.3526 9.32875 19.0931 8.99938 19.5564C8.66575 20.0218 8.30025 20.1875 7.96875 20.1875C7.63725 20.1875 7.27175 20.0218 6.93813 19.5564C6.60875 19.0931 6.375 18.3526 6.375 17.5312C6.375 16.7099 6.60875 15.9694 6.93813 15.5061C7.27175 15.0407 7.63725 14.875 7.96875 14.875ZM26.0312 14.875C26.3627 14.875 26.7282 15.0407 27.0619 15.5061C27.3912 15.9704 27.625 16.7099 27.625 17.5312C27.625 18.3526 27.3912 19.0931 27.0619 19.5564C26.7282 20.0218 26.3627 20.1875 26.0312 20.1875C25.6998 20.1875 25.3343 20.0218 25.0006 19.5564C24.6713 19.0921 24.4375 18.3526 24.4375 17.5312C24.4375 16.7099 24.6713 15.9694 25.0006 15.5061C25.3343 15.0407 25.6998 14.875 26.0312 14.875ZM17 17C15.5837 17 14.5956 17.9191 14.11 18.7266C13.6276 19.5341 13.3301 20.2056 13.0475 20.4861C12.8849 20.6529 11.8596 21.0386 10.7908 21.5836C10.2563 21.8567 9.71762 22.2211 9.26394 22.7789C8.80706 23.3368 8.49894 24.1071 8.49894 24.9709C8.49894 27.0109 10.1777 28.6896 12.2177 28.6896C13.1378 28.6896 14.0983 28.3921 15.0386 28.1265C15.9832 27.8545 17 27.625 17 27.625C17 27.625 18.0168 27.8545 18.9592 28.1244C19.9006 28.39 20.8611 28.6875 21.7812 28.6875C23.8212 28.6875 25.5 27.0087 25.5 24.9688C25.5 24.1251 25.1887 23.3537 24.735 22.8119C24.2834 22.2668 23.7394 21.93 23.2092 21.6484C22.1467 21.0853 21.1023 20.6391 20.9514 20.4861C20.6964 20.2343 20.4096 19.5404 19.9208 18.7287C19.4331 17.9138 18.4237 17 17 17ZM17 19.125C17.7013 19.125 17.7788 19.295 18.0944 19.822C18.4131 20.3479 18.6511 21.2415 19.4225 22.0139C20.2991 22.8852 21.4062 23.0764 22.2126 23.5057C22.6164 23.7203 22.9245 23.9487 23.1094 24.1697C23.2932 24.3897 23.375 24.5905 23.375 24.9666C23.375 25.8591 22.6737 26.5604 21.7812 26.5604C21.4731 26.5604 20.4808 26.3266 19.5564 26.061C18.632 25.7986 17.867 25.4979 17 25.4979C16.133 25.4979 15.368 25.7986 14.4436 26.061C13.5192 26.3266 12.5269 26.5604 12.2188 26.5604C11.3263 26.5604 10.625 25.8591 10.625 24.9666C10.625 24.5384 10.7143 24.3185 10.8906 24.1017C11.067 23.8861 11.3921 23.6725 11.7874 23.4717C12.5779 23.0679 13.6786 22.9086 14.5764 22.0107C15.3552 21.2277 15.589 20.3054 15.9046 19.7848C16.2148 19.2642 16.2892 19.1208 16.9989 19.1208L17 19.125Z" fill="#F6B83D"></path>
  </symbol>
  <symbol fill="none" xmlns="http://www.w3.org/2000/svg" viewBox="0 0 40 40" id="female">
    <rect width="40" height="40" rx="20" fill="#F43F5E"></rect>
    <path d="M20 21C22.7614 21 25 18.7614 25 16C25 13.2386 22.7614 11 20 11C17.2386 11 15 13.2386 15 16C15 18.7614 17.2386 21 20 21ZM20 21L20 29M17 26L23 26" stroke="white" stroke-width="1.5" stroke-linecap="round" stroke-linejoin="round"></path>
  </symbol>
  <symbol fill="none" xmlns="http://www.w3.org/2000/svg" viewBox="0 0 32 32" id="femalenoactive">
    <rect width="32" height="32" rx="16" fill="#F43F5E" fill-opacity="0.1"></rect>
    <path d="M16.0007 16.8333C18.3018 16.8333 20.1673 14.9679 20.1673 12.6667C20.1673 10.3655 18.3018 8.5 16.0007 8.5C13.6995 8.5 11.834 10.3655 11.834 12.6667C11.834 14.9679 13.6995 16.8333 16.0007 16.8333ZM16.0007 16.8333L16.0007 23.5M13.5007 21L18.5007 21" stroke="#F43F5E" stroke-width="1.5" stroke-linecap="round" stroke-linejoin="round"></path>
  </symbol>
  <symbol fill="none" xmlns="http://www.w3.org/2000/svg" viewBox="0 0 40 40" id="male">
    <rect width="40" height="40" rx="20" fill="#54ADFF"></rect>
    <path d="M20 19C17.2386 19 15 21.2386 15 24C15 26.7614 17.2386 29 20 29C22.7614 29 25 26.7614 25 24C25 21.2386 22.7614 19 20 19ZM20 19V11M20 11L24 15M20 11L16 15" stroke="white" stroke-width="1.5" stroke-linecap="round" stroke-linejoin="round"></path>
  </symbol>
  <symbol fill="none" xmlns="http://www.w3.org/2000/svg" viewBox="0 0 32 32" id="malenoactive">
    <rect width="32" height="32" rx="16" fill="#54ADFF" fill-opacity="0.1"></rect>
    <path d="M16.0007 15.1667C13.6995 15.1667 11.834 17.0321 11.834 19.3333C11.834 21.6345 13.6995 23.5 16.0007 23.5C18.3018 23.5 20.1673 21.6345 20.1673 19.3333C20.1673 17.0321 18.3018 15.1667 16.0007 15.1667ZM16.0007 15.1667V8.5M16.0007 8.5L19.334 11.8333M16.0007 8.5L12.6673 11.8333" stroke="#54ADFF" stroke-width="1.5" stroke-linecap="round" stroke-linejoin="round"></path>
  </symbol>
  <symbol fill="none" xmlns="http://www.w3.org/2000/svg" viewBox="0 0 40 40" id="multiple">
    <rect width="40" height="40" rx="20" fill="#F6B83D"></rect>
    <path fill-rule="evenodd" clip-rule="evenodd" d="M16.7707 15.745C16.0531 15.4647 15.2631 15.4292 14.5232 15.6439C13.7833 15.8586 13.1349 16.3115 12.6788 16.9323C12.2226 17.5531 11.9841 18.3072 12.0003 19.0774C12.0165 19.8477 12.2865 20.591 12.7683 21.1921C13.2502 21.7932 13.917 22.2185 14.6652 22.4019C15.4135 22.5853 16.2014 22.5166 16.9066 22.2064C17.6118 21.8963 18.1949 21.362 18.5655 20.6866C18.936 20.0111 19.0732 19.2323 18.9558 18.4709C18.9459 18.406 18.9488 18.3398 18.9644 18.276C18.98 18.2123 19.008 18.1522 19.0468 18.0993C19.0857 18.0463 19.1345 18.0016 19.1906 17.9675C19.2468 17.9335 19.309 17.9108 19.3739 17.9009C19.4388 17.8909 19.505 17.8938 19.5688 17.9094C19.6325 17.925 19.6926 17.953 19.7455 17.9918C19.7985 18.0307 19.8432 18.0795 19.8773 18.1357C19.9113 18.1918 19.934 18.2541 19.9439 18.3189C20.0947 19.2979 19.9181 20.2992 19.4416 21.1675C18.9651 22.0358 18.2153 22.7226 17.3086 23.1213C16.4019 23.5199 15.389 23.6081 14.427 23.3723C13.465 23.1364 12.6078 22.5896 11.9883 21.8168C11.3689 21.0439 11.0218 20.0882 11.001 19.098C10.9802 18.1077 11.2868 17.1383 11.8733 16.3401C12.4597 15.5419 13.2933 14.9596 14.2445 14.6836C15.1957 14.4075 16.2114 14.4531 17.1341 14.8134C17.1961 14.8366 17.2528 14.8719 17.301 14.9173C17.3492 14.9626 17.388 15.0171 17.4149 15.0775C17.4419 15.138 17.4566 15.2032 17.4582 15.2694C17.4598 15.3355 17.4482 15.4014 17.4242 15.463C17.4001 15.5247 17.364 15.5809 17.3181 15.6286C17.2721 15.6762 17.2171 15.7142 17.1563 15.7404C17.0955 15.7665 17.0301 15.7804 16.9639 15.7811C16.8977 15.7818 16.8321 15.7699 16.7707 15.745Z" fill="white"></path>
    <path fill-rule="evenodd" clip-rule="evenodd" d="M14.998 27.5002V23.5018C14.998 23.3693 15.0507 23.2421 15.1444 23.1484C15.2382 23.0547 15.3653 23.002 15.4978 23.002C15.6304 23.002 15.7575 23.0547 15.8513 23.1484C15.945 23.2421 15.9976 23.3693 15.9976 23.5018V27.5002C15.9976 27.6328 15.945 27.7599 15.8513 27.8536C15.7575 27.9473 15.6304 28 15.4978 28C15.3653 28 15.2382 27.9473 15.1444 27.8536C15.0507 27.7599 14.998 27.6328 14.998 27.5002Z" fill="white"></path>
    <path fill-rule="evenodd" clip-rule="evenodd" d="M13.499 25.0012C13.499 24.8687 13.5517 24.7415 13.6454 24.6478C13.7391 24.5541 13.8663 24.5014 13.9988 24.5014H16.9976C17.1302 24.5014 17.2573 24.5541 17.351 24.6478C17.4447 24.7415 17.4974 24.8687 17.4974 25.0012C17.4974 25.1338 17.4447 25.2609 17.351 25.3546C17.2573 25.4484 17.1302 25.501 16.9976 25.501H13.9988C13.8663 25.501 13.7391 25.4484 13.6454 25.3546C13.5517 25.2609 13.499 25.1338 13.499 25.0012ZM22.4464 15.6365C21.8925 15.4802 21.3086 15.4628 20.7464 15.5861C20.1843 15.7094 19.6612 15.9695 19.2236 16.3433C18.786 16.7171 18.4473 17.1931 18.2377 17.7291C18.028 18.265 17.9538 18.8445 18.0217 19.416C18.0298 19.4813 18.0249 19.5476 18.0073 19.6111C17.9897 19.6746 17.9598 19.7339 17.9191 19.7858C17.8785 19.8376 17.8281 19.8809 17.7707 19.9132C17.7133 19.9455 17.6501 19.9661 17.5847 19.9738C17.5193 19.9816 17.453 19.9764 17.3896 19.9585C17.3263 19.9405 17.2671 19.9103 17.2154 19.8694C17.1638 19.8285 17.1208 19.7778 17.0888 19.7203C17.0568 19.6627 17.0365 19.5994 17.0291 19.5339C16.9123 18.5504 17.1235 17.5557 17.6298 16.7044C18.136 15.8531 18.9092 15.1927 19.8292 14.8257C20.7491 14.4587 21.7645 14.4056 22.7178 14.6746C23.671 14.9437 24.5088 15.5198 25.1011 16.3137C25.6935 17.1076 26.0072 18.0748 25.9936 19.0652C25.9801 20.0556 25.64 21.0138 25.0262 21.7912C24.4124 22.5686 23.5592 23.1216 22.5989 23.3645C21.6387 23.6074 20.6251 23.5265 19.7155 23.1345C19.6552 23.1085 19.6006 23.0709 19.5549 23.0239C19.5091 22.9768 19.4731 22.9212 19.4488 22.8602C19.3998 22.7371 19.4017 22.5995 19.4541 22.4777C19.5065 22.356 19.6052 22.2601 19.7283 22.211C19.8515 22.162 19.9891 22.1639 20.1108 22.2163C20.5506 22.4058 21.0245 22.503 21.5033 22.5019C21.9821 22.5008 22.4556 22.4014 22.8944 22.2099C23.3332 22.0184 23.7281 21.7389 24.0546 21.3886C24.381 21.0384 24.6321 20.6248 24.7922 20.1736C24.9524 19.7224 25.0182 19.2431 24.9857 18.7654C24.9531 18.2877 24.8229 17.8218 24.603 17.3965C24.3831 16.9712 24.0782 16.5955 23.7072 16.2928C23.3363 15.9901 22.9072 15.7667 22.4464 15.6365Z" fill="white"></path>
    <path fill-rule="evenodd" clip-rule="evenodd" d="M24.3915 16.6081C24.2978 16.5144 24.2451 16.3873 24.2451 16.2548C24.2451 16.1222 24.2978 15.9951 24.3915 15.9014L28.1399 12.1529C28.186 12.1052 28.2412 12.0671 28.3022 12.0409C28.3631 12.0147 28.4287 12.0009 28.4951 12.0004C28.5614 11.9998 28.6273 12.0124 28.6887 12.0376C28.7501 12.0627 28.8059 12.0998 28.8528 12.1467C28.8998 12.1937 28.9369 12.2495 28.962 12.3109C28.9871 12.3723 28.9998 12.4381 28.9992 12.5045C28.9986 12.5708 28.9848 12.6364 28.9586 12.6974C28.9325 12.7584 28.8944 12.8135 28.8466 12.8596L25.0982 16.6081C25.0044 16.7018 24.8773 16.7545 24.7448 16.7545C24.6123 16.7545 24.4852 16.7018 24.3915 16.6081Z" fill="white"></path>
    <path fill-rule="evenodd" clip-rule="evenodd" d="M28.455 15.5051C28.3893 15.5042 28.3245 15.4905 28.2642 15.4646C28.2039 15.4387 28.1493 15.4011 28.1035 15.3541C28.0577 15.3071 28.0216 15.2515 27.9972 15.1905C27.9729 15.1296 27.9608 15.0644 27.9617 14.9988L27.9867 13.0126L26.0005 13.0376C25.8679 13.0393 25.7401 12.9883 25.6452 12.8958C25.5502 12.8033 25.4959 12.6768 25.4942 12.5443C25.4925 12.4117 25.5435 12.2839 25.636 12.189C25.7285 12.094 25.8549 12.0397 25.9875 12.038L28.9993 12L28.9613 15.0118C28.9604 15.0774 28.9467 15.1422 28.9208 15.2026C28.8949 15.2629 28.8573 15.3175 28.8103 15.3633C28.7633 15.4091 28.7077 15.4452 28.6467 15.4695C28.5858 15.4939 28.5206 15.5059 28.455 15.5051Z" fill="white"></path>
  </symbol>
  <symbol fill="none" xmlns="http://www.w3.org/2000/svg" viewBox="0 0 32 32" id="multiplenoactive">
    <rect width="32" height="32" rx="16" fill="#FFF4DF"></rect>
    <path fill-rule="evenodd" clip-rule="evenodd" d="M13.3089 12.4542C12.7109 12.2206 12.0525 12.191 11.436 12.3699C10.8194 12.5488 10.2791 12.9262 9.89898 13.4436C9.51884 13.961 9.32009 14.5893 9.33359 15.2312C9.34708 15.873 9.57206 16.4925 9.97361 16.9934C10.3752 17.4944 10.9308 17.8487 11.5544 18.0016C12.1779 18.1544 12.8345 18.0972 13.4221 17.8387C14.0098 17.5802 14.4958 17.135 14.8045 16.5722C15.1133 16.0093 15.2277 15.3602 15.1299 14.7257C15.1216 14.6717 15.124 14.6165 15.137 14.5634C15.15 14.5102 15.1733 14.4602 15.2057 14.4161C15.238 14.372 15.2788 14.3347 15.3255 14.3063C15.3723 14.2779 15.4242 14.259 15.4783 14.2507C15.5323 14.2424 15.5875 14.2448 15.6406 14.2578C15.6938 14.2708 15.7438 14.2942 15.7879 14.3265C15.832 14.3589 15.8694 14.3996 15.8977 14.4464C15.9261 14.4931 15.945 14.545 15.9533 14.5991C16.0789 15.4149 15.9318 16.2493 15.5347 16.9729C15.1376 17.6965 14.5128 18.2688 13.7572 18.601C13.0016 18.9333 12.1575 19.0068 11.3558 18.8102C10.5542 18.6137 9.83983 18.158 9.32361 17.514C8.80738 16.87 8.51816 16.0735 8.50083 15.2483C8.48349 14.4231 8.73901 13.6152 9.22773 12.9501C9.71645 12.2849 10.411 11.7997 11.2037 11.5696C11.9964 11.3396 12.8429 11.3776 13.6117 11.6778C13.6634 11.6972 13.7107 11.7266 13.7509 11.7644C13.791 11.8022 13.8233 11.8476 13.8458 11.898C13.8683 11.9483 13.8805 12.0027 13.8819 12.0578C13.8832 12.1129 13.8735 12.1678 13.8535 12.2192C13.8334 12.2706 13.8034 12.3175 13.7651 12.3571C13.7267 12.3968 13.6809 12.4285 13.6302 12.4503C13.5796 12.4721 13.5251 12.4837 13.4699 12.4842C13.4148 12.4848 13.3601 12.4749 13.3089 12.4542Z" fill="#F6B83D"></path>
    <path fill-rule="evenodd" clip-rule="evenodd" d="M11.832 22.2502V18.9182C11.832 18.8077 11.8759 18.7018 11.954 18.6237C12.0321 18.5456 12.1381 18.5017 12.2485 18.5017C12.359 18.5017 12.4649 18.5456 12.543 18.6237C12.6211 18.7018 12.665 18.8077 12.665 18.9182V22.2502C12.665 22.3606 12.6211 22.4666 12.543 22.5447C12.4649 22.6228 12.359 22.6667 12.2485 22.6667C12.1381 22.6667 12.0321 22.6228 11.954 22.5447C11.8759 22.4666 11.832 22.3606 11.832 22.2502Z" fill="#F6B83D"></path>
    <path fill-rule="evenodd" clip-rule="evenodd" d="M10.582 20.1677C10.582 20.0572 10.6259 19.9513 10.704 19.8732C10.7821 19.7951 10.8881 19.7512 10.9985 19.7512H13.4975C13.608 19.7512 13.7139 19.7951 13.792 19.8732C13.8701 19.9513 13.914 20.0572 13.914 20.1677C13.914 20.2781 13.8701 20.3841 13.792 20.4622C13.7139 20.5403 13.608 20.5842 13.4975 20.5842H10.9985C10.8881 20.5842 10.7821 20.5403 10.704 20.4622C10.6259 20.3841 10.582 20.2781 10.582 20.1677ZM18.0382 12.3638C17.5766 12.2335 17.09 12.219 16.6215 12.3218C16.1531 12.4245 15.7172 12.6412 15.3525 12.9527C14.9878 13.2642 14.7056 13.6609 14.5309 14.1076C14.3562 14.5542 14.2944 15.0371 14.3509 15.5133C14.3577 15.5678 14.3536 15.623 14.3389 15.6759C14.3243 15.7288 14.2993 15.7783 14.2655 15.8215C14.2316 15.8647 14.1896 15.9008 14.1417 15.9277C14.0939 15.9546 14.0412 15.9717 13.9867 15.9782C13.9322 15.9847 13.877 15.9803 13.8242 15.9654C13.7714 15.9504 13.7221 15.9252 13.679 15.8912C13.636 15.8571 13.6002 15.8149 13.5735 15.7669C13.5469 15.7189 13.5299 15.6661 13.5238 15.6116C13.4264 14.792 13.6024 13.9631 14.0243 13.2537C14.4462 12.5442 15.0905 11.9939 15.8571 11.6881C16.6238 11.3822 17.47 11.338 18.2643 11.5622C19.0587 11.7864 19.7569 12.2665 20.2505 12.9281C20.7441 13.5897 21.0055 14.3956 20.9942 15.221C20.9829 16.0463 20.6995 16.8448 20.188 17.4927C19.6765 18.1405 18.9655 18.6013 18.1653 18.8037C17.3651 19.0061 16.5204 18.9388 15.7624 18.6121C15.7122 18.5904 15.6667 18.5591 15.6286 18.5199C15.5904 18.4807 15.5604 18.4344 15.5402 18.3835C15.4993 18.2809 15.5009 18.1663 15.5446 18.0648C15.5883 17.9633 15.6705 17.8834 15.7731 17.8425C15.8758 17.8017 15.9904 17.8033 16.0919 17.847C16.4583 18.0048 16.8533 18.0858 17.2523 18.0849C17.6513 18.084 18.0458 18.0012 18.4115 17.8416C18.7772 17.682 19.1063 17.4491 19.3783 17.1572C19.6503 16.8653 19.8596 16.5207 19.993 16.1447C20.1265 15.7687 20.1814 15.3693 20.1543 14.9712C20.1271 14.5731 20.0186 14.1848 19.8353 13.8304C19.6521 13.476 19.398 13.1629 19.0889 12.9107C18.7798 12.6584 18.4221 12.4723 18.0382 12.3638Z" fill="#F6B83D"></path>
    <path fill-rule="evenodd" clip-rule="evenodd" d="M19.6591 13.1734C19.581 13.0953 19.5371 12.9894 19.5371 12.879C19.5371 12.7685 19.581 12.6626 19.6591 12.5845L22.7828 9.46078C22.8212 9.421 22.8672 9.38927 22.918 9.36744C22.9688 9.34561 23.0234 9.33412 23.0787 9.33364C23.134 9.33316 23.1889 9.3437 23.2401 9.36464C23.2913 9.38558 23.3378 9.41651 23.3769 9.45562C23.416 9.49472 23.4469 9.54122 23.4678 9.59241C23.4888 9.6436 23.4993 9.69844 23.4988 9.75374C23.4984 9.80904 23.4869 9.8637 23.4651 9.91451C23.4432 9.96533 23.4115 10.0113 23.3717 10.0497L20.248 13.1734C20.1699 13.2515 20.064 13.2954 19.9535 13.2954C19.8431 13.2954 19.7372 13.2515 19.6591 13.1734Z" fill="#F6B83D"></path>
    <path fill-rule="evenodd" clip-rule="evenodd" d="M23.0455 12.2542C22.9908 12.2535 22.9368 12.2421 22.8865 12.2205C22.8362 12.1989 22.7907 12.1676 22.7526 12.1284C22.7144 12.0892 22.6843 12.0429 22.664 11.9921C22.6438 11.9413 22.6337 11.887 22.6344 11.8323L22.6552 10.1772L21.0001 10.198C20.8896 10.1994 20.7831 10.1569 20.704 10.0798C20.6249 10.0027 20.5796 9.89736 20.5782 9.7869C20.5767 9.67644 20.6192 9.56993 20.6963 9.49081C20.7734 9.41168 20.8788 9.36643 20.9892 9.36499L23.4991 9.33334L23.4674 11.8431C23.4667 11.8978 23.4552 11.9519 23.4336 12.0021C23.4121 12.0524 23.3808 12.0979 23.3416 12.1361C23.3024 12.1743 23.2561 12.2043 23.2053 12.2246C23.1545 12.2449 23.1002 12.2549 23.0455 12.2542Z" fill="#F6B83D"></path>
  </symbol>
  <symbol fill="none" xmlns="http://www.w3.org/2000/svg" viewBox="0 0 18 18" id="calendar">
    <path d="M14.25 3H3.75C2.92157 3 2.25 3.67157 2.25 4.5V15C2.25 15.8284 2.92157 16.5 3.75 16.5H14.25C15.0784 16.5 15.75 15.8284 15.75 15V4.5C15.75 3.67157 15.0784 3 14.25 3Z" stroke="#262626" stroke-width="1.5" stroke-linecap="round" stroke-linejoin="round"></path>
    <path d="M12 1.5V4.5" stroke="#262626" stroke-width="1.5" stroke-linecap="round" stroke-linejoin="round"></path>
    <path d="M6 1.5V4.5" stroke="#262626" stroke-width="1.5" stroke-linecap="round" stroke-linejoin="round"></path>
    <path d="M2.25 7.5H15.75" stroke="#262626" stroke-width="1.5" stroke-linecap="round" stroke-linejoin="round"></path>
  </symbol>
  <symbol fill="none" xmlns="http://www.w3.org/2000/svg" viewBox="0 0 18 18" id="down">
    <path d="M4.5 6.75L9 11.25L13.5 6.75" stroke="#262626" stroke-width="1.5" stroke-linecap="round" stroke-linejoin="round"></path>
  </symbol>
  <symbol fill="none" xmlns="http://www.w3.org/2000/svg" viewBox="0 0 18 18" id="up">
    <path d="M4.5 11.25L9 6.75L13.5 11.25" stroke="#262626" stroke-width="1.5" stroke-linecap="round" stroke-linejoin="round"></path>
  </symbol>
   <symbol fill="none" xmlns="http://www.w3.org/2000/svg" viewBox="0 0 16 16" id="trash">
    <path d="M2 4H3.33333H14" stroke="#F6B83D" stroke-width="1.2" stroke-linecap="round" stroke-linejoin="round"></path>
    <path d="M12.6673 4.00001V13.3333C12.6673 13.687 12.5268 14.0261 12.2768 14.2762C12.0267 14.5262 11.6876 14.6667 11.334 14.6667H4.66732C4.3137 14.6667 3.97456 14.5262 3.72451 14.2762C3.47446 14.0261 3.33398 13.687 3.33398 13.3333V4.00001M5.33398 4.00001V2.66668C5.33398 2.31305 5.47446 1.97392 5.72451 1.72387C5.97456 1.47382 6.3137 1.33334 6.66732 1.33334H9.33399C9.68761 1.33334 10.0267 1.47382 10.2768 1.72387C10.5268 1.97392 10.6673 2.31305 10.6673 2.66668V4.00001" stroke="#F6B83D" stroke-width="1.2" stroke-linecap="round" stroke-linejoin="round"></path>
    <path d="M6.66602 7.33334V11.3333" stroke="#F6B83D" stroke-width="1.2" stroke-linecap="round" stroke-linejoin="round"></path>
    <path d="M9.33398 7.33334V11.3333" stroke="#F6B83D" stroke-width="1.2" stroke-linecap="round" stroke-linejoin="round"></path>
  </symbol>
   <symbol fill="none" xmlns="http://www.w3.org/2000/svg" viewBox="0 0 16 16" id="star">
    <g clip-path="url(#clip0_55817_4879)">
      <path d="M6.20021 4.69703L8 1.28579L9.79979 4.69703C9.95896 4.9987 10.2491 5.20947 10.5851 5.26762L14.3856 5.92519L11.6975 8.69103C11.4598 8.93563 11.3489 9.27666 11.3975 9.61427L11.9465 13.4319L8.48537 11.7301C8.17929 11.5795 7.82071 11.5796 7.51463 11.7301L4.05348 13.4319L4.6025 9.61427C4.65105 9.27666 4.54024 8.93563 4.30252 8.69103L1.6144 5.92519L5.41486 5.26762C5.75095 5.20947 6.04104 4.9987 6.20021 4.69703ZM14.5177 5.78928L14.5175 5.78947L14.5177 5.78928ZM3.8834 13.5155C3.88344 13.5155 3.88349 13.5155 3.88353 13.5155L3.8834 13.5155Z" fill="#FFC531" stroke="#FFC531" stroke-width="1.2"></path>
    </g>
    <defs>
      <clipPath id="clip0_55817_4879">
        <rect width="16" height="16" fill="white"></rect>
      </clipPath>
    </defs>
  </symbol>
  <symbol fill="none" xmlns="http://www.w3.org/2000/svg" viewBox="0 0 18 18" id="heart">
    <path d="M15.6286 3.45753C15.2456 3.07428 14.7907 2.77026 14.2901 2.56284C13.7895 2.35542 13.253 2.24866 12.7111 2.24866C12.1693 2.24866 11.6327 2.35542 11.1321 2.56284C10.6315 2.77026 10.1767 3.07428 9.79362 3.45753L8.99862 4.25253L8.20362 3.45753C7.42985 2.68376 6.3804 2.24906 5.28612 2.24906C4.19185 2.24906 3.14239 2.68376 2.36862 3.45753C1.59486 4.2313 1.16016 5.28075 1.16016 6.37503C1.16016 7.4693 1.59486 8.51876 2.36862 9.29253L3.16362 10.0875L8.99862 15.9225L14.8336 10.0875L15.6286 9.29253C16.0119 8.90946 16.3159 8.45464 16.5233 7.95404C16.7307 7.45345 16.8375 6.91689 16.8375 6.37503C16.8375 5.83316 16.7307 5.2966 16.5233 4.79601C16.3159 4.29542 16.0119 3.84059 15.6286 3.45753Z" stroke="#F6B83D" stroke-width="1.5" stroke-linecap="round" stroke-linejoin="round"></path>
  </symbol>
  <symbol fill="none" xmlns="http://www.w3.org/2000/svg" viewBox="0 0 295 2" id="line">
    <path d="M0 1H295" stroke="#262626" stroke-opacity="0.1"></path>
  </symbol>
  <symbol fill="none" xmlns="http://www.w3.org/2000/svg" viewBox="0 0 18 18" id="trash">
    <path d="M2.25 4.5H3.75H15.75" stroke="#F6B83D" stroke-width="1.5" stroke-linecap="round" stroke-linejoin="round"></path>
    <path d="M14.25 4.5V15C14.25 15.3978 14.092 15.7794 13.8107 16.0607C13.5294 16.342 13.1478 16.5 12.75 16.5H5.25C4.85218 16.5 4.47064 16.342 4.18934 16.0607C3.90804 15.7794 3.75 15.3978 3.75 15V4.5M6 4.5V3C6 2.60218 6.15804 2.22064 6.43934 1.93934C6.72065 1.65804 7.10218 1.5 7.5 1.5H10.5C10.8978 1.5 11.2794 1.65804 11.5607 1.93934C11.842 2.22064 12 2.60218 12 3V4.5" stroke="#F6B83D" stroke-width="1.5" stroke-linecap="round" stroke-linejoin="round"></path>
    <path d="M7.5 8.25V12.75" stroke="#F6B83D" stroke-width="1.5" stroke-linecap="round" stroke-linejoin="round"></path>
    <path d="M10.5 8.25V12.75" stroke="#F6B83D" stroke-width="1.5" stroke-linecap="round" stroke-linejoin="round"></path>
  </symbol>
  <symbol fill="none" xmlns="http://www.w3.org/2000/svg" viewBox="0 0 18 18" id="heartWhite">
    <path d="M15.6286 3.45753C15.2456 3.07428 14.7907 2.77026 14.2901 2.56284C13.7895 2.35542 13.253 2.24866 12.7111 2.24866C12.1693 2.24866 11.6327 2.35542 11.1321 2.56284C10.6315 2.77026 10.1767 3.07428 9.79362 3.45753L8.99862 4.25253L8.20362 3.45753C7.42985 2.68376 6.3804 2.24906 5.28612 2.24906C4.19185 2.24906 3.14239 2.68376 2.36862 3.45753C1.59486 4.2313 1.16016 5.28075 1.16016 6.37503C1.16016 7.4693 1.59486 8.51876 2.36862 9.29253L3.16362 10.0875L8.99862 15.9225L14.8336 10.0875L15.6286 9.29253C16.0119 8.90946 16.3159 8.45464 16.5233 7.95404C16.7307 7.45345 16.8375 6.91689 16.8375 6.37503C16.8375 5.83316 16.7307 5.2966 16.5233 4.79601C16.3159 4.29542 16.0119 3.84059 15.6286 3.45753Z" stroke="white" stroke-width="1.5" stroke-linecap="round" stroke-linejoin="round"></path>
  </symbol>
</svg>




















